<?xml version="1.0" ?><svg height="128" id="svg8" version="1.1" viewBox="0 0 33.866666 33.866668" width="128" xmlns="http://www.w3.org/2000/svg" xmlns:svg="http://www.w3.org/2000/svg" xmlns:xlink="http://www.w3.org/1999/xlink"><defs id="defs2"><clipPath clipPathUnits="userSpaceOnUse" id="clipPath5292"><ellipse cx="554.68481" cy="1234.8002" id="ellipse5294" rx="46.906162" ry="46.90797" style="display:inline;opacity:0.469;fill:#ffaaaa;fill-rule:evenodd;stroke:#333333;stroke-width:3.5625;stroke-linecap:round;stroke-linejoin:round;stroke-miterlimit:4;stroke-dasharray:none;stroke-dashoffset:6.5999999;stroke-opacity:1"/></clipPath><clipPath clipPathUnits="userSpaceOnUse" id="clipPath6174"><ellipse cx="128.2972" cy="1416.0679" id="ellipse6176" rx="55.76445" ry="55.766594" style="display:inline;opacity:0.572;fill:#ff9696;fill-opacity:1;fill-rule:evenodd;stroke:#333333;stroke-width:4.21448183;stroke-linecap:round;stroke-linejoin:round;stroke-miterlimit:4;stroke-dasharray:none;stroke-dashoffset:6.5999999;stroke-opacity:1"/></clipPath><clipPath clipPathUnits="userSpaceOnUse" id="clipPath5123"><ellipse cx="68.499504" cy="1656.6876" id="ellipse5125" rx="71.409416" ry="71.223892" style="display:inline;opacity:0.45199998;fill:#ffe680;fill-rule:evenodd;stroke:none;stroke-width:4.21448183;stroke-linecap:round;stroke-linejoin:round;stroke-miterlimit:4;stroke-dasharray:none;stroke-dashoffset:6.5999999;stroke-opacity:1"/></clipPath><clipPath clipPathUnits="userSpaceOnUse" id="clipPath8754"><ellipse cx="205.48343" cy="1298.3982" id="ellipse8756" rx="78.18396" ry="83.010139" style="display:inline;opacity:0.419;fill:#ffaaaa;fill-opacity:1;fill-rule:evenodd;stroke:#333333;stroke-width:4.21448183;stroke-linecap:round;stroke-linejoin:round;stroke-miterlimit:4;stroke-dasharray:none;stroke-dashoffset:6.5999999;stroke-opacity:1"/></clipPath><clipPath clipPathUnits="userSpaceOnUse" id="clipPath11474"><ellipse cx="230.12242" cy="1486.3468" id="ellipse11476" rx="55.76445" ry="55.766594" style="display:inline;opacity:0.32099998;fill:#efb5e3;fill-opacity:1;fill-rule:evenodd;stroke:none;stroke-width:4.21448183;stroke-linecap:round;stroke-linejoin:round;stroke-miterlimit:4;stroke-dasharray:none;stroke-dashoffset:6.5999999;stroke-opacity:1"/></clipPath><clipPath clipPathUnits="userSpaceOnUse" id="clipPath5143"><ellipse cx="209.94763" cy="1573.1123" id="ellipse5145" rx="55.764446" ry="55.766594" style="display:inline;opacity:0.43500001;fill:#ffaaaa;fill-rule:evenodd;stroke:#333333;stroke-width:4.21448183;stroke-linecap:round;stroke-linejoin:round;stroke-miterlimit:4;stroke-dasharray:none;stroke-dashoffset:6.5999999;stroke-opacity:1"/></clipPath></defs><g id="layer1" transform="translate(0,-263.13332)"><g id="g5602" transform="matrix(0.24193764,0,0,0.24193764,-124.08232,-135.10812)"><g id="g11258" transform="matrix(0.50932075,0,0,0.50932075,379.01453,861.04651)"><g id="g11271" transform="translate(5.206248,-7.8093725)"><path d="m 427.86719,1551.3535 a 12.285425,12.285425 0 0 0 -0.66992,0.022 c -14.91588,0.8867 -26.18917,9.6545 -30.19922,19.0898 -0.17852,0.4201 -0.24446,0.801 -0.40625,1.2168 a 12.285425,12.285425 0 0 0 -6.14649,3.1192 c -9.16256,8.6451 -10.65307,22.5542 -6.75,32.4394 3.64247,9.2252 10.19264,16.6343 17.56446,23.1836 5.04219,8.4879 11.07274,16.3255 19.44726,21.6407 8.97157,5.6941 22.97582,6.7787 33.12305,-0.6875 a 12.285425,12.285425 0 0 0 4.17187,-5.4883 c 0.42765,-0.082 0.80375,-0.077 1.23828,-0.1739 10.00891,-2.2338 20.63475,-11.7472 24.23829,-26.2773 a 12.285425,12.285425 0 0 0 -5.52149,-13.4219 c 1.44888,-3.0271 2.6084,-6.0523 3.27344,-8.914 2.28394,-9.8281 2.35985,-18.157 3.91211,-23.1465 a 12.285425,12.285425 0 0 0 -13.18164,-15.8457 c -5.12676,0.6099 -13.27806,-0.85 -23.33789,-0.4024 -2.89266,0.1287 -6.03074,0.7025 -9.22461,1.5586 a 12.285425,12.285425 0 0 0 -11.53125,-7.9121 z" id="path11226" style="fill:#FFFFFF;fill-rule:evenodd;stroke:none;stroke-width:6.71156216;stroke-linecap:round;stroke-linejoin:round;stroke-miterlimit:4;stroke-dasharray:none;stroke-opacity:1" transform="translate(1.3960972e-6)" xlink:href="#path10956"/><path d="m 377.9375,1587.3906 a 11.156812,11.156812 0 0 0 -2.16602,0.2559 l -7.72656,1.6894 a 11.156812,11.156812 0 0 0 -6.2539,17.961 c 15.89231,19.4356 21.15295,37.2524 16.18554,54.5586 a 11.156812,11.156812 0 0 0 8.72852,14.0547 l 11.60156,2.1074 a 11.156812,11.156812 0 0 0 13.13672,-10.4219 c 1.42023,-28.4778 -4.14592,-47.8138 -10.95703,-60.2285 -3.40556,-6.2074 -7.08469,-10.6533 -10.25586,-13.6817 -1.58558,-1.5141 -3.02803,-2.671 -4.35938,-3.58 -0.66567,-0.4545 -1.2873,-0.8429 -2.03515,-1.2364 -0.74786,-0.3934 -0.0288,-1.0596 -4.78516,-1.4433 a 11.156812,11.156812 0 0 0 -1.11328,-0.035 z" id="path11222" style="fill:#FFFFFF;fill-opacity:1;fill-rule:evenodd;stroke:none;stroke-width:6.71156216;stroke-linecap:round;stroke-linejoin:round;stroke-miterlimit:4;stroke-dasharray:none;stroke-dashoffset:0;stroke-opacity:1" transform="translate(1.3960972e-6)" xlink:href="#path10960"/><path d="m 392.54297,1650.2266 c -9.15692,0.012 -18.20717,3.211 -25.53516,8.6933 -6.15616,-3.305 -13.03751,-5.271 -20.02539,-5.2832 a 11.380534,11.380534 0 0 0 -0.0195,0 c -11.17253,9e-4 -22.27161,4.6286 -30.1543,12.5547 -7.88268,7.9261 -12.45907,19.0458 -12.45898,30.2305 a 11.380534,11.380534 0 0 0 0,0.012 c 0.0154,15.1942 9.16308,29.6829 22.23047,37.2109 -0.23681,1.8237 -0.54635,3.6414 -0.54688,5.4805 a 11.380534,11.380534 0 0 0 0,0.018 c 0.0209,16.3839 10.7699,31.8123 25.44336,38.748 -0.008,0.3181 -0.0676,0.633 -0.0684,0.9512 a 11.380534,11.380534 0 0 0 0,0.027 c -9e-5,11.1851 4.57574,22.3063 12.45899,30.2325 7.88325,7.9261 18.98327,12.5525 30.15625,12.5527 11.17298,-2e-4 22.273,-4.6266 30.15625,-12.5527 7.88325,-7.9262 12.45908,-19.0474 12.45898,-30.2325 a 11.380534,11.380534 0 0 0 0,-0.017 c 6.33564,-2.2093 12.22493,-5.7083 16.87305,-10.5547 7.55296,-7.8752 11.91127,-18.733 11.91797,-29.6504 a 11.380534,11.380534 0 0 0 0,-0.027 c -0.005,-3.2472 -0.42223,-6.484 -1.15821,-9.6464 10.71044,-8.0088 17.73989,-21.039 17.74805,-34.4805 a 11.380534,11.380534 0 0 0 0,-0.01 c 7.7e-4,-11.1855 -4.57567,-22.3058 -12.45898,-30.2324 -7.88332,-7.9267 -18.98285,-12.5545 -30.15625,-12.5547 a 11.380534,11.380534 0 0 0 -0.0195,0 c -7.8271,0.013 -15.51575,2.4666 -22.1836,6.5625 -7.16514,-5.0747 -15.84673,-8.0246 -24.63086,-8.0332 a 11.380534,11.380534 0 0 0 -0.0273,0 z" id="path11217" style="fill:#FFFFFF;fill-opacity:1;fill-rule:evenodd;stroke:none;stroke-width:7.6276226;stroke-linecap:round;stroke-linejoin:round;stroke-miterlimit:4;stroke-dasharray:none;stroke-opacity:1" transform="translate(1.3960972e-6)" xlink:href="#ellipse10962"/><g id="g10948" style="fill:#bd73d1;fill-opacity:1;stroke:none" transform="matrix(1.3572391,0,0,1.3572391,19.773691,-630.85162)"><path d="m 256.56055,1662.9473 c -8.44596,5e-4 -16.83689,3.4993 -22.79493,9.4902 -5.95803,5.9909 -9.41639,14.3951 -9.41601,22.8477 3.8e-4,8.452 3.46001,16.8554 9.41797,22.8457 5.95796,5.9903 14.3475,9.4897 22.79297,9.4902 a 9.1975396,9.1975396 0 0 0 0.01,0 c 6.85626,-0.01 13.49753,-2.5709 19.00977,-6.6406 5.63163,4.385 12.6596,6.9966 19.80273,7.0019 a 9.1975396,9.1975396 0 0 0 0.008,0 c 8.44595,2e-4 16.83639,-3.4979 22.79493,-9.4883 5.95854,-5.9904 9.41762,-14.395 9.41797,-22.8476 3.4e-4,-8.453 -3.45937,-16.8567 -9.41797,-22.8477 -5.95861,-5.9909 -14.34854,-9.4904 -22.79493,-9.4902 a 9.1975396,9.1975396 0 0 0 -0.01,0 c -6.85626,0.01 -13.49753,2.5709 -19.00977,6.6406 -5.63163,-4.385 -12.6596,-6.9966 -19.80273,-7.0019 a 9.1975396,9.1975396 0 0 0 -0.008,0 z" id="path11220" style="fill:#FFFFFF;fill-opacity:1;fill-rule:evenodd;stroke:none;stroke-width:7.62762308;stroke-linecap:round;stroke-linejoin:round;stroke-miterlimit:4;stroke-dasharray:none;stroke-opacity:1" xlink:href="#ellipse10944"/><path d="m 256.56125,1672.1448 a 23.015045,23.139651 0 0 0 -23.01453,23.1403 23.015045,23.139651 0 0 0 23.01453,23.1391 23.015045,23.139651 0 0 0 19.29654,-10.5688 23.015047,23.13965 0 0 0 19.53314,10.9301 23.015047,23.13965 0 0 0 23.01453,-23.1392 23.015047,23.13965 0 0 0 -23.01453,-23.1402 23.015047,23.13965 0 0 0 -19.29654,10.5688 23.015045,23.139651 0 0 0 -19.53314,-10.9301 z" id="ellipse10944" style="fill:#b46cc9;fill-opacity:1;fill-rule:evenodd;stroke:none;stroke-width:4.125;stroke-linecap:round;stroke-linejoin:round;stroke-miterlimit:4;stroke-dasharray:none;stroke-opacity:1"/></g><path d="m 417.34375,1610.2969 a 5.6353487,5.6353487 0 0 0 -3.2207,1.0742 c -7.69552,5.5812 -15.72329,9.2759 -23.43555,10.5937 a 5.6353487,5.6353487 0 0 0 -4.43555,7.2149 l 1.9668,6.3789 a 5.6353487,5.6353487 0 0 0 6.92969,3.7598 c 11.22522,-3.1988 18.46696,-6.4949 23.0625,-9.1817 2.29777,-1.3434 3.92957,-2.5301 5.08008,-3.5058 0.57525,-0.4879 1.02585,-0.9169 1.41601,-1.3379 0.19508,-0.2105 0.37036,-0.4077 0.58789,-0.6973 0.10877,-0.1448 0.22513,-0.3023 0.40235,-0.6035 0.17721,-0.3012 0.63077,-0.1951 0.78515,-2.5254 a 5.6353487,5.6353487 0 0 0 -0.92969,-3.4902 l -3.42773,-5.1621 a 5.6353487,5.6353487 0 0 0 -4.78125,-2.5176 z" id="path11228" style="fill:#FFFFFF;fill-opacity:1;fill-rule:evenodd;stroke:none;stroke-width:6.71156216;stroke-linecap:round;stroke-linejoin:round;stroke-miterlimit:4;stroke-dasharray:none;stroke-dashoffset:0;stroke-opacity:1" transform="translate(1.3960972e-6)" xlink:href="#path10954"/><path d="m 393.60319,1633.8982 c 21.71391,-6.1876 27.23953,-12.5491 27.25651,-12.8054 l -3.42757,-5.1614 c -8.23994,5.976 -17.01343,10.0873 -25.7958,11.588 z" id="path10954" style="fill:#8dd35f;fill-opacity:1;fill-rule:evenodd;stroke:none;stroke-width:5.25464582;stroke-linecap:round;stroke-linejoin:round;stroke-miterlimit:4;stroke-dasharray:none;stroke-dashoffset:0;stroke-opacity:1"/><path d="m 473.41298,1570.3057 c -15.61799,1.8582 -33.56813,-6.4541 -46.39218,11.1765 -0.53779,-6.1019 -2.46201,-13.1774 0.90448,-17.8456 -23.57302,1.4014 -20.987,19.3593 -23.29975,30.7857 -4.40594,-2.462 -6.21864,-6.0688 -5.75124,-10.6852 -11.75203,11.0883 -2.23864,26.6254 11.94197,38.7983 9.28929,16.2542 22.72771,28.5166 35.73362,18.947 -4.59965,-0.3887 -7.79232,-2.844 -9.38749,-7.6509 11.5977,-0.1804 28.67882,5.6828 34.39144,-17.3514 -5.18437,2.4664 -11.74766,-0.7383 -17.61435,-2.3937 19.59981,-9.4237 14.77919,-28.6914 19.4735,-43.7807 z" id="path10956" style="fill:#8dd35f;fill-rule:evenodd;stroke:none;stroke-width:5.25464582;stroke-linecap:round;stroke-linejoin:round;stroke-miterlimit:4;stroke-dasharray:none;stroke-opacity:1"/><path d="m 400.3015,1667.0417 c 2.67301,-53.5979 -20.87772,-68.3953 -22.14692,-68.4977 l -7.72696,1.6905 c 17.34866,21.2167 24.4247,43.2627 18.27194,64.6985 z" id="path10960" style="fill:#a05a2c;fill-opacity:1;fill-rule:evenodd;stroke:none;stroke-width:5.25464582;stroke-linecap:round;stroke-linejoin:round;stroke-miterlimit:4;stroke-dasharray:none;stroke-dashoffset:0;stroke-opacity:1"/><path d="m 392.55873,1661.6059 a 31.23692,31.406037 0 0 0 -24.37798,11.8184 31.23692,31.406037 0 0 0 -21.21695,-8.4094 31.23692,31.406037 0 0 0 -31.23622,31.4069 31.23692,31.406037 0 0 0 24.12424,30.5481 31.23692,31.406037 0 0 0 -2.43995,12.1596 31.23692,31.406037 0 0 0 26.62584,31.0212 31.23692,31.406037 0 0 0 -1.25152,8.7176 31.23692,31.406037 0 0 0 31.23765,31.4068 31.23692,31.406037 0 0 0 31.23622,-31.4068 31.23692,31.406037 0 0 0 -1.29165,-8.8653 31.23692,31.406037 0 0 0 30.08219,-31.3652 31.23692,31.406037 0 0 0 -3.6929,-14.7616 31.23692,31.406037 0 0 0 20.28368,-29.3926 31.23692,31.406037 0 0 0 -31.23622,-31.4069 31.23692,31.406037 0 0 0 -22.7695,9.962 31.23692,31.406037 0 0 0 -24.07693,-11.4328 z" id="ellipse10962" style="fill:#cd87de;fill-opacity:1;fill-rule:evenodd;stroke:none;stroke-width:5.59861088;stroke-linecap:round;stroke-linejoin:round;stroke-miterlimit:4;stroke-dasharray:none;stroke-opacity:1"/></g></g><path d="m 560.59097,1736.7352 c 0.55294,-0.046 1.08672,1.2374 1.80427,3.2061 0.69373,1.9033 1.62492,4.6435 3.21044,6.9687 0.0495,0.077 0.0998,0.1535 0.15112,0.2299 1.60783,2.3947 3.83873,4.1269 5.50443,5.3763 1.68369,1.2629 2.84496,2.0833 2.66794,2.6207 -0.15754,0.4783 -1.66131,0.6362 -3.94434,-0.1324 -2.25387,-0.7587 -5.24788,-2.4743 -7.46629,-5.6346 -0.0694,-0.099 -0.13756,-0.1985 -0.20438,-0.2988 -1.99032,-3.1235 -2.58691,-6.3885 -2.6395,-8.6372 -0.0535,-2.2895 0.41423,-3.6572 0.91631,-3.6987 z" id="path11339" style="opacity:1;fill:#FFFFFF;fill-opacity:1;fill-rule:evenodd;stroke:none;stroke-width:7.87778616;stroke-linecap:round;stroke-linejoin:round;stroke-miterlimit:4;stroke-dasharray:none;stroke-dashoffset:0;stroke-opacity:1"/></g></g></svg>
